<?xml version="1.0" encoding="UTF-8"?>
<svg xmlns="http://www.w3.org/2000/svg" xmlns:xlink="http://www.w3.org/1999/xlink" width="128.1pt" height="127.2pt" viewBox="0 0 128.1 127.2" version="1.1">
<defs>
<clipPath id="clip1">
  <path d="M 0 0 L 128.101563 0 L 128.101563 127.199219 L 0 127.199219 Z M 0 0 "/>
</clipPath>
</defs>
<g id="surface1">
<g clip-path="url(#clip1)" clip-rule="nonzero">
<path style="fill:none;stroke-width:22.859;stroke-linecap:butt;stroke-linejoin:miter;stroke:rgb(10.594177%,9.812927%,9.423828%);stroke-opacity:1;stroke-miterlimit:4;" d="M 641.132813 1260.984375 C 988.554688 1260.984375 1270.15625 981.453125 1270.15625 636.648438 C 1270.15625 291.804688 988.554688 12.273438 641.132813 12.273438 C 293.789063 12.273438 12.148438 291.804688 12.148438 636.648438 C 12.148438 981.453125 293.789063 1260.984375 641.132813 1260.984375 Z M 641.132813 1260.984375 " transform="matrix(0.1,0,0,-0.1,0,127.2)"/>
</g>
<path style="fill:none;stroke-width:22.775;stroke-linecap:butt;stroke-linejoin:miter;stroke:rgb(10.594177%,9.812927%,9.423828%);stroke-opacity:1;stroke-miterlimit:4;" d="M 637.539063 1088.953125 C 888.671875 1088.953125 1092.304688 884.34375 1092.304688 631.960938 C 1092.304688 379.617188 888.671875 175.046875 637.539063 175.046875 C 386.328125 175.046875 182.734375 379.617188 182.734375 631.960938 C 182.734375 884.34375 386.328125 1088.953125 637.539063 1088.953125 Z M 637.539063 1088.953125 " transform="matrix(0.1,0,0,-0.1,0,127.2)"/>
<path style=" stroke:none;fill-rule:evenodd;fill:rgb(10.594177%,9.812927%,9.423828%);fill-opacity:1;" d="M 10.746094 57.546875 L 11.367188 56.054688 C 12.207031 56.363281 12.808594 56.8125 13.175781 57.398438 C 13.542969 57.980469 13.691406 58.695313 13.617188 59.539063 C 13.527344 60.585938 13.09375 61.410156 12.328125 62.019531 C 11.550781 62.628906 10.546875 62.878906 9.3125 62.773438 C 8.003906 62.65625 7.015625 62.230469 6.351563 61.492188 C 5.6875 60.753906 5.402344 59.835938 5.5 58.730469 C 5.582031 57.769531 5.933594 57.015625 6.558594 56.464844 C 6.921875 56.132813 7.429688 55.910156 8.074219 55.785156 L 8.3125 57.390625 C 7.898438 57.445313 7.558594 57.613281 7.296875 57.886719 C 7.039063 58.160156 6.886719 58.511719 6.847656 58.929688 C 6.796875 59.511719 6.964844 60.003906 7.351563 60.40625 C 7.738281 60.804688 8.398438 61.042969 9.335938 61.128906 C 10.332031 61.214844 11.054688 61.097656 11.503906 60.773438 C 11.964844 60.460938 12.214844 60.007813 12.261719 59.4375 C 12.296875 59.015625 12.195313 58.640625 11.957031 58.3125 C 11.714844 57.988281 11.308594 57.730469 10.746094 57.546875 Z M 13.992188 54.910156 L 6.304688 53.136719 L 7.625 47.4375 L 8.921875 47.738281 L 7.964844 51.882813 L 9.667969 52.277344 L 10.558594 48.417969 L 11.851563 48.71875 L 10.964844 52.582031 L 13.054688 53.058594 L 14.046875 48.765625 L 15.339844 49.066406 Z M 15.722656 47.804688 L 8.414063 44.847656 L 9.300781 42.636719 L 14.832031 43.332031 L 10.367188 40.003906 L 11.261719 37.785156 L 18.582031 40.738281 L 18.023438 42.109375 L 12.265625 39.785156 L 17.4375 43.5625 L 16.863281 44.984375 L 10.519531 44.105469 L 16.277344 46.433594 Z M 19.429688 39.257813 L 12.8125 34.964844 L 15.996094 30.054688 L 17.117188 30.78125 L 14.800781 34.351563 L 16.265625 35.304688 L 18.421875 31.980469 L 19.535156 32.710938 L 17.378906 36.027344 L 19.179688 37.195313 L 21.585938 33.503906 L 22.695313 34.226563 Z M 23.472656 33.152344 L 17.609375 27.871094 L 18.648438 26.71875 L 24.722656 27.84375 L 20.808594 24.316406 L 21.800781 23.21875 L 27.664063 28.496094 L 26.59375 29.6875 L 20.640625 28.605469 L 24.464844 32.050781 Z M 30.105469 26.039063 L 25.894531 21.015625 L 24.101563 22.523438 L 23.242188 21.503906 L 28.042969 17.46875 L 28.902344 18.492188 L 27.113281 19.992188 L 31.332031 25.011719 Z M 31.464844 19.839844 C 31.039063 19.15625 30.78125 18.519531 30.703125 17.929688 C 30.636719 17.496094 30.652344 17.058594 30.746094 16.628906 C 30.84375 16.1875 31.003906 15.808594 31.234375 15.480469 C 31.542969 15.046875 31.96875 14.65625 32.511719 14.316406 C 33.503906 13.699219 34.476563 13.511719 35.457031 13.753906 C 36.425781 13.996094 37.253906 14.660156 37.933594 15.753906 C 38.609375 16.835938 38.84375 17.859375 38.636719 18.839844 C 38.429688 19.8125 37.839844 20.609375 36.855469 21.222656 C 35.859375 21.84375 34.878906 22.035156 33.914063 21.796875 C 32.945313 21.554688 32.128906 20.902344 31.464844 19.839844 Z M 32.832031 18.921875 C 33.300781 19.679688 33.839844 20.144531 34.429688 20.316406 C 35.023438 20.492188 35.589844 20.40625 36.128906 20.070313 C 36.667969 19.734375 36.988281 19.265625 37.089844 18.660156 C 37.191406 18.054688 37.003906 17.367188 36.519531 16.589844 C 36.039063 15.824219 35.511719 15.359375 34.941406 15.1875 C 34.371094 15.023438 33.804688 15.113281 33.253906 15.464844 C 32.691406 15.808594 32.363281 16.28125 32.257813 16.878906 C 32.160156 17.46875 32.347656 18.152344 32.832031 18.921875 Z M 39.652344 16.492188 L 40.992188 15.699219 C 41.296875 16.132813 41.628906 16.398438 41.992188 16.503906 C 42.351563 16.601563 42.753906 16.550781 43.191406 16.34375 C 43.65625 16.128906 43.964844 15.863281 44.105469 15.558594 C 44.253906 15.253906 44.261719 14.964844 44.136719 14.703125 C 44.058594 14.535156 43.941406 14.414063 43.785156 14.339844 C 43.632813 14.269531 43.410156 14.246094 43.121094 14.273438 C 42.925781 14.296875 42.492188 14.371094 41.820313 14.503906 C 40.960938 14.671875 40.304688 14.6875 39.863281 14.550781 C 39.238281 14.363281 38.796875 13.988281 38.53125 13.421875 C 38.363281 13.054688 38.308594 12.671875 38.367188 12.253906 C 38.425781 11.839844 38.609375 11.464844 38.921875 11.113281 C 39.234375 10.765625 39.660156 10.464844 40.214844 10.214844 C 41.109375 9.789063 41.878906 9.671875 42.515625 9.851563 C 43.152344 10.035156 43.632813 10.449219 43.964844 11.097656 L 42.550781 11.835938 C 42.316406 11.492188 42.058594 11.296875 41.78125 11.226563 C 41.503906 11.160156 41.160156 11.222656 40.753906 11.410156 C 40.339844 11.605469 40.046875 11.84375 39.890625 12.128906 C 39.789063 12.308594 39.78125 12.492188 39.867188 12.679688 C 39.945313 12.847656 40.089844 12.964844 40.285156 13.011719 C 40.539063 13.085938 41.054688 13.035156 41.839844 12.871094 C 42.613281 12.714844 43.214844 12.640625 43.632813 12.660156 C 44.050781 12.679688 44.425781 12.800781 44.761719 13.019531 C 45.097656 13.238281 45.367188 13.574219 45.582031 14.023438 C 45.769531 14.433594 45.839844 14.871094 45.773438 15.339844 C 45.714844 15.800781 45.515625 16.214844 45.179688 16.585938 C 44.84375 16.953125 44.367188 17.28125 43.746094 17.570313 C 42.839844 17.992188 42.050781 18.105469 41.371094 17.914063 C 40.691406 17.722656 40.117188 17.253906 39.652344 16.492188 Z M 72.175781 13.859375 L 73.667969 6.175781 L 75.230469 6.480469 L 73.992188 12.855469 L 77.878906 13.613281 L 77.628906 14.921875 Z M 78.683594 15.253906 L 81.121094 7.746094 L 82.636719 8.238281 L 80.203125 15.742188 Z M 81.640625 16.210938 L 84.722656 8.941406 L 86.917969 9.878906 L 86.132813 15.386719 L 89.535156 10.988281 L 91.738281 11.921875 L 88.652344 19.183594 L 87.292969 18.605469 L 89.71875 12.886719 L 85.851563 17.992188 L 84.4375 17.394531 L 85.425781 11.066406 L 83.003906 16.785156 Z M 95.933594 23.953125 L 94.464844 23.035156 L 94.835938 21.152344 L 92.15625 19.480469 L 90.652344 20.65625 L 89.21875 19.757813 L 96.007813 14.695313 L 97.4375 15.589844 Z M 95.101563 19.753906 L 95.730469 16.695313 L 93.273438 18.613281 Z M 114.339844 45.402344 L 114.9375 46.84375 C 114.464844 47.085938 114.15625 47.378906 114.007813 47.71875 C 113.859375 48.0625 113.851563 48.46875 113.992188 48.929688 C 114.144531 49.421875 114.359375 49.761719 114.644531 49.945313 C 114.929688 50.128906 115.214844 50.179688 115.488281 50.09375 C 115.671875 50.039063 115.800781 49.941406 115.894531 49.796875 C 115.988281 49.65625 116.046875 49.441406 116.054688 49.152344 C 116.0625 48.957031 116.046875 48.511719 116.011719 47.832031 C 115.964844 46.957031 116.039063 46.300781 116.230469 45.882813 C 116.503906 45.292969 116.941406 44.90625 117.539063 44.722656 C 117.921875 44.605469 118.3125 44.605469 118.714844 44.722656 C 119.117188 44.839844 119.46875 45.078125 119.769531 45.429688 C 120.066406 45.785156 120.304688 46.253906 120.484375 46.835938 C 120.773438 47.78125 120.785156 48.558594 120.515625 49.164063 C 120.246094 49.769531 119.769531 50.1875 119.085938 50.425781 L 118.550781 48.921875 C 118.921875 48.738281 119.15625 48.511719 119.257813 48.246094 C 119.363281 47.980469 119.347656 47.632813 119.21875 47.210938 C 119.085938 46.761719 118.886719 46.441406 118.628906 46.253906 C 118.464844 46.121094 118.28125 46.089844 118.089844 46.148438 C 117.90625 46.207031 117.777344 46.328125 117.695313 46.515625 C 117.59375 46.757813 117.566406 47.277344 117.621094 48.070313 C 117.671875 48.863281 117.660156 49.46875 117.585938 49.878906 C 117.503906 50.292969 117.335938 50.648438 117.066406 50.953125 C 116.804688 51.253906 116.433594 51.472656 115.960938 51.617188 C 115.527344 51.753906 115.085938 51.753906 114.632813 51.628906 C 114.183594 51.503906 113.796875 51.253906 113.480469 50.867188 C 113.164063 50.484375 112.902344 49.964844 112.703125 49.308594 C 112.410156 48.355469 112.40625 47.554688 112.691406 46.910156 C 112.976563 46.261719 113.527344 45.761719 114.339844 45.402344 Z M 113.96875 53.605469 L 115.460938 53.34375 L 115.71875 54.835938 L 114.230469 55.097656 Z M 115.046875 63.800781 L 114.894531 62.078125 L 116.621094 61.230469 L 116.347656 58.089844 L 114.503906 57.597656 L 114.355469 55.914063 L 122.484375 58.289063 L 122.632813 59.964844 Z M 117.902344 60.605469 L 120.722656 59.269531 L 117.714844 58.464844 Z M 114.820313 64.640625 L 116.335938 64.640625 L 116.335938 66.15625 L 114.820313 66.15625 Z M 114.820313 64.640625 "/>
<path style=" stroke:none;fill-rule:evenodd;fill:rgb(10.594177%,9.812927%,9.423828%);fill-opacity:1;" d="M 22.996094 104.433594 L 28.613281 97.96875 L 29.929688 99.113281 L 25.265625 104.476563 L 28.535156 107.320313 L 27.585938 108.421875 Z M 28.628906 109.039063 L 33.941406 102.234375 L 35.316406 103.308594 L 30.003906 110.113281 Z M 31.222656 111.128906 L 35.542969 103.652344 L 37.800781 104.960938 L 36.214844 110.839844 L 40.503906 106.511719 L 42.765625 107.820313 L 38.445313 115.300781 L 37.042969 114.488281 L 40.445313 108.601563 L 35.558594 113.632813 L 34.105469 112.792969 L 36.023438 106.050781 L 32.628906 111.9375 Z M 47.238281 118.894531 L 45.480469 118.183594 L 45.515625 116.085938 L 42.316406 114.789063 L 40.921875 116.339844 L 39.210938 115.648438 L 45.558594 108.902344 L 47.269531 109.59375 Z M 45.542969 114.523438 L 45.640625 111.105469 L 43.359375 113.640625 Z M 77.632813 119.628906 L 75.253906 111.332031 L 77.941406 110.554688 C 78.960938 110.265625 79.636719 110.117188 79.96875 110.109375 C 80.480469 110.097656 80.960938 110.253906 81.398438 110.582031 C 81.839844 110.90625 82.152344 111.398438 82.339844 112.058594 C 82.488281 112.566406 82.519531 113.023438 82.433594 113.421875 C 82.347656 113.828125 82.191406 114.164063 81.964844 114.445313 C 81.734375 114.722656 81.480469 114.9375 81.210938 115.089844 C 80.832031 115.277344 80.261719 115.484375 79.503906 115.707031 L 78.410156 116.015625 L 79.308594 119.148438 Z M 77.332031 112.253906 L 78.003906 114.605469 L 78.921875 114.34375 C 79.585938 114.152344 80.011719 113.984375 80.214844 113.835938 C 80.40625 113.683594 80.542969 113.496094 80.617188 113.277344 C 80.6875 113.054688 80.691406 112.820313 80.621094 112.578125 C 80.535156 112.273438 80.378906 112.050781 80.140625 111.90625 C 79.90625 111.757813 79.648438 111.703125 79.363281 111.730469 C 79.148438 111.753906 78.742188 111.847656 78.140625 112.019531 L 77.335938 112.253906 Z M 85.386719 117.207031 L 81.738281 109.378906 L 87.539063 106.675781 L 88.160156 108.003906 L 83.9375 109.96875 L 84.746094 111.707031 L 88.671875 109.871094 L 89.289063 111.1875 L 85.359375 113.019531 L 86.351563 115.152344 L 90.722656 113.113281 L 91.339844 114.433594 Z M 92.65625 113.839844 L 87.957031 106.597656 L 91.03125 104.597656 C 91.804688 104.097656 92.410156 103.796875 92.84375 103.703125 C 93.277344 103.601563 93.714844 103.648438 94.136719 103.84375 C 94.5625 104.042969 94.914063 104.351563 95.195313 104.78125 C 95.546875 105.328125 95.679688 105.878906 95.589844 106.441406 C 95.503906 107.003906 95.167969 107.535156 94.589844 108.039063 C 95.027344 108.019531 95.421875 108.050781 95.769531 108.136719 C 96.117188 108.226563 96.648438 108.4375 97.363281 108.773438 L 99.167969 109.613281 L 97.417969 110.746094 L 95.339844 109.855469 C 94.59375 109.539063 94.109375 109.351563 93.878906 109.292969 C 93.640625 109.238281 93.429688 109.234375 93.238281 109.277344 C 93.050781 109.328125 92.789063 109.460938 92.453125 109.675781 L 92.15625 109.867188 L 94.117188 112.890625 Z M 91.402344 108.714844 L 92.484375 108.007813 C 93.1875 107.550781 93.605469 107.238281 93.742188 107.066406 C 93.878906 106.894531 93.953125 106.707031 93.957031 106.492188 C 93.960938 106.285156 93.890625 106.070313 93.753906 105.855469 C 93.589844 105.609375 93.398438 105.460938 93.171875 105.390625 C 92.941406 105.328125 92.703125 105.351563 92.433594 105.464844 C 92.304688 105.527344 91.945313 105.746094 91.351563 106.132813 L 90.214844 106.878906 Z M 94.289063 102.53125 L 95.601563 101.386719 L 98.671875 104.917969 C 99.160156 105.476563 99.492188 105.832031 99.667969 105.964844 C 99.960938 106.183594 100.277344 106.277344 100.628906 106.257813 C 100.980469 106.234375 101.339844 106.0625 101.710938 105.742188 C 102.085938 105.417969 102.296875 105.097656 102.355469 104.78125 C 102.410156 104.464844 102.363281 104.175781 102.210938 103.921875 C 102.054688 103.664063 101.753906 103.28125 101.300781 102.761719 L 98.167969 99.15625 L 99.484375 98.015625 L 102.460938 101.4375 C 103.140625 102.222656 103.589844 102.804688 103.796875 103.1875 C 104.003906 103.578125 104.109375 103.964844 104.113281 104.347656 C 104.113281 104.734375 104.011719 105.136719 103.808594 105.546875 C 103.601563 105.960938 103.242188 106.386719 102.722656 106.835938 C 102.101563 107.378906 101.566406 107.714844 101.121094 107.847656 C 100.675781 107.984375 100.257813 108.015625 99.871094 107.953125 C 99.488281 107.882813 99.15625 107.753906 98.878906 107.550781 C 98.464844 107.253906 97.945313 106.738281 97.308594 106.007813 Z M 94.289063 102.53125 "/>
<path style=" stroke:none;fill-rule:evenodd;fill:rgb(10.594177%,9.812927%,9.423828%);fill-opacity:1;" d="M 12.238281 78.066406 C 13.53125 78.066406 14.585938 79.113281 14.585938 80.410156 C 14.585938 81.710938 13.53125 82.757813 12.238281 82.757813 C 10.941406 82.757813 9.890625 81.710938 9.890625 80.410156 C 9.890625 79.113281 10.941406 78.066406 12.238281 78.066406 Z M 12.238281 78.066406 "/>
<path style=" stroke:none;fill-rule:evenodd;fill:rgb(10.594177%,9.812927%,9.423828%);fill-opacity:1;" d="M 114.050781 78.066406 C 115.34375 78.066406 116.394531 79.113281 116.394531 80.410156 C 116.394531 81.710938 115.34375 82.757813 114.050781 82.757813 C 112.753906 82.757813 111.703125 81.710938 111.703125 80.410156 C 111.703125 79.113281 112.753906 78.066406 114.050781 78.066406 Z M 114.050781 78.066406 "/>
<path style="fill-rule:evenodd;fill:rgb(10.594177%,9.812927%,9.423828%);fill-opacity:1;stroke-width:2;stroke-linecap:butt;stroke-linejoin:miter;stroke:rgb(0%,0%,0%);stroke-opacity:1;stroke-miterlimit:4;" d="M 657.929688 984.539063 L 705.78125 1022.351563 L 726.132813 971.023438 L 780.78125 998.054688 L 790.039063 943.5625 L 849.101563 958.640625 L 846.875 903.445313 L 907.773438 905.945313 L 894.101563 852.351563 L 954.179688 842.15625 L 929.6875 792.664063 L 986.328125 770.164063 L 952.070313 726.804688 L 1002.773438 693.015625 L 960.234375 657.742188 L 1002.851563 614.148438 L 953.90625 588.484375 L 986.523438 536.960938 L 933.359375 522.039063 L 954.53125 464.851563 L 899.375 461.375 L 908.203125 401.0625 L 853.515625 409.070313 L 849.648438 348.210938 L 797.8125 367.390625 L 781.367188 308.71875 L 734.648438 338.289063 L 706.367188 284.304688 L 666.835938 322.898438 L 627.929688 275.984375 L 597.304688 321.960938 L 549.53125 284.1875 L 529.0625 335.515625 L 474.453125 308.484375 L 465.15625 362.9375 L 406.132813 347.859375 L 408.398438 403.054688 L 347.460938 400.59375 L 361.132813 454.109375 L 301.054688 464.34375 L 325.546875 513.875 L 268.90625 536.375 L 303.164063 579.695313 L 252.460938 613.484375 L 294.960938 648.796875 L 252.382813 692.351563 L 301.289063 718.054688 L 268.710938 769.539063 L 321.914063 784.460938 L 300.78125 841.609375 L 355.898438 845.164063 L 347.070313 905.476563 L 401.679688 897.429688 L 405.585938 958.289063 L 457.421875 939.109375 L 473.867188 997.78125 L 520.546875 968.210938 L 548.867188 1022.195313 L 588.398438 983.601563 L 627.265625 1030.515625 Z M 657.929688 984.539063 " transform="matrix(0.1,0,0,-0.1,0,127.2)"/>
<path style="fill-rule:evenodd;fill:rgb(100%,100%,100%);fill-opacity:1;stroke-width:22.8;stroke-linecap:butt;stroke-linejoin:miter;stroke:rgb(10.594177%,9.812927%,9.423828%);stroke-opacity:1;stroke-miterlimit:4;" d="M 353.320313 923.210938 L 601.210938 887.9375 L 663.007813 887.9375 L 910.898438 923.210938 C 910.390625 733.796875 909.921875 544.304688 909.414063 354.8125 C 816.484375 354.8125 727.96875 393.601563 635.078125 393.601563 C 542.148438 393.601563 444.765625 354.8125 351.835938 354.8125 Z M 353.320313 923.210938 " transform="matrix(0.1,0,0,-0.1,0,127.2)"/>
<path style=" stroke:none;fill-rule:evenodd;fill:rgb(10.594177%,9.812927%,9.423828%);fill-opacity:1;" d="M 39.402344 66.414063 L 42.765625 66.035156 C 42.964844 67.328125 43.378906 68.269531 43.996094 68.871094 C 44.613281 69.472656 45.445313 69.777344 46.496094 69.777344 C 47.605469 69.777344 48.445313 69.507813 49.007813 68.96875 C 49.578125 68.433594 49.855469 67.804688 49.855469 67.089844 C 49.855469 66.628906 49.738281 66.234375 49.496094 65.914063 C 49.261719 65.589844 48.847656 65.304688 48.253906 65.070313 C 47.851563 64.90625 46.929688 64.628906 45.492188 64.214844 C 43.640625 63.695313 42.339844 63.050781 41.597656 62.285156 C 40.546875 61.214844 40.019531 59.910156 40.019531 58.363281 C 40.019531 57.371094 40.265625 56.445313 40.761719 55.582031 C 41.253906 54.714844 41.96875 54.058594 42.894531 53.605469 C 43.832031 53.15625 44.945313 52.925781 46.261719 52.925781 C 48.410156 52.925781 50.023438 53.464844 51.109375 54.535156 C 52.195313 55.609375 52.761719 57.039063 52.820313 58.835938 L 49.367188 59.003906 C 49.21875 58.003906 48.902344 57.28125 48.414063 56.84375 C 47.929688 56.402344 47.203125 56.1875 46.230469 56.1875 C 45.226563 56.1875 44.4375 56.417969 43.871094 56.890625 C 43.503906 57.1875 43.320313 57.59375 43.320313 58.097656 C 43.320313 58.558594 43.492188 58.960938 43.839844 59.28125 C 44.269531 59.703125 45.332031 60.136719 47.007813 60.589844 C 48.6875 61.039063 49.933594 61.507813 50.738281 61.988281 C 51.539063 62.472656 52.171875 63.128906 52.628906 63.96875 C 53.085938 64.808594 53.308594 65.84375 53.308594 67.078125 C 53.308594 68.191406 53.039063 69.238281 52.492188 70.214844 C 51.945313 71.1875 51.179688 71.914063 50.183594 72.386719 C 49.1875 72.863281 47.945313 73.097656 46.464844 73.097656 C 44.296875 73.097656 42.636719 72.53125 41.476563 71.390625 C 40.320313 70.253906 39.628906 68.589844 39.402344 66.414063 Z M 55.515625 63.128906 C 55.515625 61.136719 55.773438 59.472656 56.296875 58.128906 C 56.6875 57.136719 57.214844 56.242188 57.886719 55.457031 C 58.5625 54.667969 59.296875 54.085938 60.097656 53.703125 C 61.164063 53.183594 62.390625 52.925781 63.785156 52.925781 C 66.304688 52.925781 68.320313 53.816406 69.839844 55.601563 C 71.347656 57.378906 72.105469 59.859375 72.105469 63.03125 C 72.105469 66.179688 71.351563 68.640625 69.851563 70.421875 C 68.347656 72.195313 66.34375 73.089844 63.835938 73.089844 C 61.289063 73.089844 59.265625 72.203125 57.765625 70.433594 C 56.261719 68.664063 55.515625 66.226563 55.515625 63.128906 Z M 59.070313 62.996094 C 59.070313 65.203125 59.519531 66.878906 60.414063 68.015625 C 61.308594 69.152344 62.445313 69.722656 63.820313 69.722656 C 65.195313 69.722656 66.332031 69.160156 67.214844 68.023438 C 68.089844 66.894531 68.53125 65.203125 68.53125 62.941406 C 68.53125 60.710938 68.101563 59.042969 67.246094 57.9375 C 66.386719 56.839844 65.242188 56.289063 63.820313 56.289063 C 62.394531 56.289063 61.253906 56.847656 60.378906 57.964844 C 59.507813 59.078125 59.070313 60.746094 59.070313 62.996094 Z M 74.890625 72.753906 L 74.890625 53.417969 L 78.34375 53.417969 L 78.34375 69.46875 L 86.929688 69.46875 L 86.929688 72.753906 Z M 74.890625 72.753906 "/>
</g>
</svg>
